<?xml version="1.0" standalone="no"?>
<!DOCTYPE svg PUBLIC "-//W3C//DTD SVG 20010904//EN"
 "http://www.w3.org/TR/2001/REC-SVG-20010904/DTD/svg10.dtd">
<svg version="1.0" xmlns="http://www.w3.org/2000/svg"
 width="310.000000pt" height="310.000000pt" viewBox="0 0 310.000000 310.000000"
 preserveAspectRatio="xMidYMid meet">
<metadata>
Created by potrace 1.11, written by Peter Selinger 2001-2013
</metadata>
<g transform="translate(0.000000,310.000000) scale(0.100000,-0.100000)"
fill="#000000" stroke="none">
<path d="M1355 2946 c-55 -14 -130 -49 -159 -75 -10 -9 -37 -25 -59 -36 -41
-20 -130 -118 -164 -180 -23 -43 -21 -130 3 -185 18 -40 19 -53 11 -116 -9
-62 -7 -91 16 -220 31 -171 32 -184 13 -184 -9 0 -17 -15 -21 -40 -5 -30 1
-60 25 -132 42 -125 58 -153 91 -165 16 -6 33 -23 39 -37 10 -28 7 -157 -5
-177 -5 -8 -4 -10 3 -5 7 4 5 -8 -4 -30 -14 -33 -14 -36 0 -31 18 7 23 -18 6
-28 -20 -12 -9 -25 15 -19 30 7 30 8 5 -56 -12 -30 -20 -72 -19 -103 1 -48 2
-50 9 -17 7 37 61 151 85 184 13 18 15 17 39 -10 22 -24 25 -36 21 -69 -9 -63
-53 -150 -83 -163 -15 -7 -43 -21 -62 -32 -19 -11 -73 -37 -120 -59 -47 -21
-143 -66 -214 -100 -71 -33 -146 -66 -167 -71 -83 -23 -137 -95 -189 -250 -35
-106 -46 -187 -55 -398 l-5 -142 214 0 c207 0 215 1 221 20 4 11 29 48 56 82
27 34 49 67 49 75 0 7 9 13 21 13 12 0 34 11 51 25 34 29 48 31 87 11 l28 -15
-11 39 c-8 30 -7 43 2 52 10 10 21 3 52 -32 37 -42 39 -43 39 -20 1 14 -6 46
-14 73 -15 51 -12 72 11 81 24 9 53 -12 68 -49 24 -55 76 -71 76 -22 0 30 -33
151 -56 209 l-19 47 -34 -30 c-19 -16 -35 -28 -36 -27 -2 2 -11 43 -20 91 -13
66 -15 91 -6 100 8 8 11 5 11 -14 0 -13 5 -31 10 -39 13 -20 13 45 0 163 -8
76 -6 93 10 129 l18 42 -5 -62 c-6 -62 -6 -62 21 -62 23 0 26 -4 26 -34 0 -54
10 -91 34 -120 l22 -28 39 17 c22 9 57 26 77 36 20 10 42 19 48 19 28 0 38 28
38 106 -1 67 3 86 25 128 27 49 27 66 1 66 -8 0 -14 5 -14 11 0 6 7 9 15 6 8
-4 26 0 40 7 21 11 23 15 10 20 -9 3 -30 6 -45 6 -32 0 -103 37 -95 50 2 4 15
5 29 3 34 -7 42 14 16 42 -14 14 -19 28 -14 36 21 34 50 60 81 70 43 14 37 33
-12 37 -21 2 -45 10 -53 18 -8 9 -26 22 -39 31 -13 9 -22 18 -20 20 3 2 29 6
58 8 33 3 56 11 62 20 10 19 34 19 52 1 10 -10 25 -11 57 -5 24 4 47 8 52 9
18 0 -8 16 -57 34 -30 12 -60 16 -81 12 -23 -5 -37 -2 -46 9 -24 29 -152 -5
-165 -44 -3 -11 -3 -25 0 -31 11 -18 -6 -50 -26 -50 -10 0 -33 13 -49 29 -24
22 -33 42 -41 89 -11 73 -61 208 -94 256 -42 61 -40 64 67 110 78 33 100 47
109 69 13 31 21 33 54 11 23 -15 25 -15 25 0 0 21 16 21 24 0 17 -45 -7 -150
-60 -261 -14 -28 -24 -62 -22 -75 3 -20 10 -23 48 -26 37 -2 54 3 93 29 l47
31 -30 37 c-16 21 -36 44 -45 51 -19 15 -19 47 0 80 9 16 14 55 15 109 l0 84
-37 35 c-21 19 -42 45 -48 56 -12 24 -99 56 -154 57 -61 1 -71 7 -71 44 0 24
7 37 25 49 15 10 25 26 25 40 0 14 5 47 12 75 14 61 51 94 125 112 26 7 68 21
93 33 38 17 65 20 178 20 72 0 132 4 132 8 0 16 19 7 25 -12 3 -11 14 -20 24
-20 18 0 46 -27 74 -72 9 -15 28 -33 43 -40 20 -10 32 -31 50 -83 13 -38 34
-88 46 -109 16 -30 22 -62 26 -138 3 -54 8 -101 12 -103 8 -5 15 183 12 305
-3 94 -20 220 -31 234 -4 6 -11 23 -15 39 -3 15 -11 27 -16 27 -6 0 -10 11
-10 24 0 14 -5 28 -10 31 -6 4 -10 21 -8 39 1 24 -7 43 -31 73 -17 22 -31 44
-30 49 3 18 -1 34 -8 33 -21 -3 -31 3 -36 21 -3 11 -13 23 -24 26 -10 3 -34
14 -53 24 -45 24 -134 34 -187 22 -36 -8 -46 -7 -75 14 -41 29 -141 39 -213
20z m339 -131 c16 -20 26 -38 24 -40 -6 -7 -88 72 -88 84 0 19 34 -4 64 -44z
m-88 31 c6 -5 74 -116 74 -121 0 -17 -125 87 -141 118 -9 17 -7 18 28 11 21
-4 39 -7 39 -8z m-90 -44 c22 -17 39 -52 26 -52 -18 0 -72 41 -72 55 0 20 20
19 46 -3z m-136 -117 c11 -13 10 -14 -4 -9 -9 3 -16 10 -16 15 0 13 6 11 20
-6z m-60 -17 c0 -6 -6 -5 -15 2 -8 7 -15 14 -15 16 0 2 7 1 15 -2 8 -4 15 -11
15 -16z m-275 -85 c-4 -32 -13 -70 -21 -85 -8 -16 -12 -28 -9 -28 4 0 3 -5 0
-11 -5 -6 -13 -2 -22 11 -17 24 -13 98 6 109 5 4 14 19 20 34 19 50 34 32 26
-30z m343 -568 c39 -27 34 -32 -17 -14 -17 6 -31 17 -31 25 0 19 5 18 48 -11z"/>
<path d="M1740 2164 c-53 -14 -74 -30 -64 -46 6 -10 48 -11 58 -1 13 14 101
43 131 44 29 1 30 1 5 9 -37 12 -69 10 -130 -6z"/>
<path d="M1712 2047 c-12 -13 -24 -37 -28 -54 -5 -27 -3 -31 22 -37 17 -5 30
-3 32 3 2 7 10 6 22 -1 14 -9 25 -9 47 2 15 8 32 16 36 18 5 3 4 -5 -2 -17
-10 -19 -9 -21 12 -21 13 0 34 9 47 20 13 11 27 20 32 20 16 0 7 32 -14 51
-25 20 -53 24 -63 9 -11 -19 -57 -11 -62 10 -7 28 -54 26 -81 -3z"/>
<path d="M2115 1960 c-3 -5 -1 -10 4 -10 6 0 11 5 11 10 0 6 -2 10 -4 10 -3 0
-8 -4 -11 -10z"/>
<path d="M1590 1686 c0 -7 14 -16 32 -20 36 -7 43 -3 35 19 -8 19 -67 21 -67
1z"/>
<path d="M2150 1264 c6 -14 15 -34 20 -44 6 -11 31 -98 55 -194 25 -95 59
-211 75 -257 48 -130 54 -149 48 -155 -3 -3 -32 -9 -64 -14 -33 -5 -92 -13
-133 -19 -41 -7 -81 -16 -88 -23 -7 -6 -16 -8 -20 -4 -4 3 -10 64 -14 134 -8
117 -30 308 -46 392 -6 32 -8 29 -14 -30 -10 -100 -10 -239 1 -259 5 -10 11
-79 13 -152 3 -114 7 -140 25 -176 15 -29 27 -41 37 -37 8 4 15 1 15 -5 0 -7
9 -31 20 -55 10 -24 23 -69 29 -102 5 -32 20 -86 33 -119 13 -33 30 -79 38
-102 l13 -43 454 0 453 0 0 555 0 554 -37 26 c-27 18 -51 25 -83 25 -26 0 -71
4 -101 10 -50 9 -271 29 -520 49 -94 7 -112 11 -158 39 -28 18 -53 32 -56 32
-2 0 0 -12 5 -26z m-103 -786 c-3 -8 -6 -5 -6 6 -1 11 2 17 5 13 3 -3 4 -12 1
-19z"/>
<path d="M1857 26 c-4 -10 -5 -21 -2 -24 9 -9 17 6 13 25 -3 17 -4 17 -11 -1z"/>
<path d="M1315 10 c-3 -5 -1 -10 4 -10 6 0 11 5 11 10 0 6 -2 10 -4 10 -3 0
-8 -4 -11 -10z"/>
</g>
</svg>
